<svg xmlns="http://www.w3.org/2000/svg" width="960" height="372" viewBox="0 0 960 372"><text x="480" y="34" text-anchor="middle" font-size="14" font-family="var(--font-text), sans-serif" fill="#222222">Function Graph</text><line x1="126" y1="338" x2="126" y2="38" stroke="#e0e0e0" stroke-width="1"/><line x1="306" y1="338" x2="306" y2="38" stroke="#e0e0e0" stroke-width="1"/><line x1="486" y1="338" x2="486" y2="38" stroke="#e0e0e0" stroke-width="1"/><line x1="666" y1="338" x2="666" y2="38" stroke="#e0e0e0" stroke-width="1"/><line x1="846" y1="338" x2="846" y2="38" stroke="#e0e0e0" stroke-width="1"/><line x1="36" y1="291.4587127427228" x2="936" y2="291.4587127427228" stroke="#e0e0e0" stroke-width="1"/><line x1="36" y1="239.73225550487638" x2="936" y2="239.73225550487638" stroke="#e0e0e0" stroke-width="1"/><line x1="36" y1="188.00579826702992" x2="936" y2="188.00579826702992" stroke="#e0e0e0" stroke-width="1"/><line x1="36" y1="136.2793410291835" x2="936" y2="136.2793410291835" stroke="#e0e0e0" stroke-width="1"/><line x1="36" y1="84.55288379133702" x2="936" y2="84.55288379133702" stroke="#e0e0e0" stroke-width="1"/><line x1="36" y1="188.00579826702992" x2="936" y2="188.00579826702992" stroke="#222222" stroke-width="1.2"/><line x1="486" y1="38" x2="486" y2="338" stroke="#222222" stroke-width="1.2"/><line x1="126" y1="184.00579826702992" x2="126" y2="192.00579826702992" stroke="#222222" stroke-width="1"/><text x="126" y="202.00579826702992" text-anchor="middle" font-size="11" fill="#5c5c5c" font-family="var(--font-text), sans-serif">-4</text><line x1="306" y1="184.00579826702992" x2="306" y2="192.00579826702992" stroke="#222222" stroke-width="1"/><text x="306" y="202.00579826702992" text-anchor="middle" font-size="11" fill="#5c5c5c" font-family="var(--font-text), sans-serif">-2</text><line x1="486" y1="184.00579826702992" x2="486" y2="192.00579826702992" stroke="#222222" stroke-width="1"/><text x="486" y="202.00579826702992" text-anchor="middle" font-size="11" fill="#5c5c5c" font-family="var(--font-text), sans-serif">0</text><line x1="666" y1="184.00579826702992" x2="666" y2="192.00579826702992" stroke="#222222" stroke-width="1"/><text x="666" y="202.00579826702992" text-anchor="middle" font-size="11" fill="#5c5c5c" font-family="var(--font-text), sans-serif">2</text><line x1="846" y1="184.00579826702992" x2="846" y2="192.00579826702992" stroke="#222222" stroke-width="1"/><text x="846" y="202.00579826702992" text-anchor="middle" font-size="11" fill="#5c5c5c" font-family="var(--font-text), sans-serif">4</text><line x1="482" y1="291.4587127427228" x2="490" y2="291.4587127427228" stroke="#222222" stroke-width="1"/><text x="476" y="295.4587127427228" text-anchor="end" font-size="11" fill="#5c5c5c" font-family="var(--font-text), sans-serif">-0.8</text><line x1="482" y1="239.73225550487638" x2="490" y2="239.73225550487638" stroke="#222222" stroke-width="1"/><text x="476" y="243.73225550487638" text-anchor="end" font-size="11" fill="#5c5c5c" font-family="var(--font-text), sans-serif">-0.4</text><line x1="482" y1="188.00579826702992" x2="490" y2="188.00579826702992" stroke="#222222" stroke-width="1"/><text x="476" y="192.00579826702992" text-anchor="end" font-size="11" fill="#5c5c5c" font-family="var(--font-text), sans-serif">0</text><line x1="482" y1="136.2793410291835" x2="490" y2="136.2793410291835" stroke="#222222" stroke-width="1"/><text x="476" y="140.2793410291835" text-anchor="end" font-size="11" fill="#5c5c5c" font-family="var(--font-text), sans-serif">0.4</text><line x1="482" y1="84.55288379133702" x2="490" y2="84.55288379133702" stroke="#222222" stroke-width="1"/><text x="476" y="88.55288379133702" text-anchor="end" font-size="11" fill="#5c5c5c" font-family="var(--font-text), sans-serif">0.8</text><text x="486" y="352" text-anchor="middle" font-size="12" fill="#222222" font-family="var(--font-text), sans-serif">x</text><text x="22" y="188" text-anchor="middle" font-size="12" fill="#222222" font-family="var(--font-text), sans-serif" transform="rotate(-90 22 188)">y</text><path d="M36,64.00140954779056 L39.01003344481609,62.84415861295054 L42.020066889632105,61.82689489682167 L45.03010033444819,60.95075615949355 L48.04013377926421,60.216722319616736 L51.0501672240803,59.62561435841161 L54.06020066889631,59.17809340144106 L57.0702341137124,58.87465997917303 L60.08026755852841,58.71565346716204 L63.09030100334451,58.70125170647367 L66.10033444816051,58.831470804778235 L69.1103678929766,59.1061651183349 L72.12040133779261,59.52502741488746 L75.13043478260872,60.08758921728855 L78.14046822742472,60.7932213274683 L81.15050167224081,61.64113453016239 L84.16053511705682,62.63038047561059 L87.17056856187291,63.759852740240035 L90.18060200668901,65.0282880641463 L93.19063545150502,66.4342677639886 L96.20066889632103,67.97621931971753 L99.21070234113712,69.65241813336331 L102.22073578595321,71.46098945791397 L105.23076923076923,73.39991049412959 L108.24080267558531,75.46701265294485 L111.25083612040133,77.65998398093035 L114.26086956521742,79.976371746101 L117.27090301003342,82.4135851811767 L120.28093645484952,84.96889838123093 L123.29096989966553,87.63945335248195 L126.30100334448161,90.42226320882114 L129.31103678929765,93.31421551249929 L132.32107023411373,96.3120757552378 L135.33110367892974,99.41249097586874 L138.34113712374582,102.61199351045948 L141.35117056856188,105.90700487072621 L144.36120401337791,109.29383974639961 L147.37123745819397,112.76871012706539 L150.38127090301003,116.32772953887007 L153.39130434782606,119.96691739135338 L156.40133779264215,123.68220342954547 L159.41137123745818,127.46943228634959 L162.42140468227424,131.3243681301182 L165.4314381270903,135.24269940222555 L168.44147157190633,139.22004363933627 L171.45150501672245,143.25195237497817 L174.46153846153845,147.33391611493582 L177.47157190635454,151.4613693809014 L180.48160535117054,155.6296958167398 L183.49163879598666,159.8342333516599 L186.50167224080266,164.0702794145134 L189.51170568561875,168.33309619339343 L192.52173913043475,172.6179159346461 L195.53177257525084,176.91994627537267 L198.54180602006684,181.23437560345374 L201.55183946488296,185.55637843910492 L204.56187290969896,189.88112083194076 L207.57190635451505,194.20376576751443 L210.5819397993311,198.5194785772829 L213.59197324414717,202.8234323459497 L216.60200668896323,207.11081331013483 L219.61204013377926,211.37682624233577 L222.62207357859532,215.61669981415656 L225.63210702341138,219.8256919328071 L228.6421404682274,223.99909504490364 L231.65217391304347,228.13224140163877 L234.66220735785953,232.22050827943198 L237.6722408026756,236.25932315022158 L240.68227424749162,240.24416879561522 L243.6923076923077,244.1705883591798 L246.70234113712377,248.03419033121833 L249.7123745819398,251.83065346046132 L252.72240802675586,255.55573158717579 L255.73244147157192,259.20525839228924 L258.74247491638795,262.7751520572151 L261.75250836120404,266.26141982916886 L264.76254180602007,269.6601624868681 L267.7725752508361,272.9675787016223 L270.78260869565213,276.17996928893456 L273.7926421404682,279.29374134585964 L276.8026755852843,282.3054122694919 L279.81270903010034,285.2116136520872 L282.82274247491637,288.0090950484636 L285.8327759197324,290.6947276114669 L288.8428093645485,293.26550759143345 L291.8528428093645,295.71855969573943 L294.8628762541806,298.0511403046752 L297.87290969899664,300.26064054005116 L300.8829431438127,302.3445891831014 L303.8929765886288,304.3006554384217 L306.90301003344484,306.1266515408514 L309.9130434782609,307.8205352023823 L312.92307692307696,309.38041189635857 L315.933110367893,310.80453697641315 L318.943143812709,312.09131762776985 L321.9531772575251,313.2393146487294 L324.96321070234114,314.24724406034676 L327.9732441471572,315.1139785424989 L330.98327759197326,315.8385486947383 L333.9933110367893,316.4201441205196 L337.0033444816053,316.8581143335892 L340.0133779264214,317.15196948552256 L343.02341137123744,317.30138091359566 L346.03344481605353,317.30618150837864 L349.04347826086956,317.1663659006391 L352.0535117056856,316.88209046734784 L355.0635451505017,316.4536731567785 L358.0735785953177,315.88159313289793 L361.08361204013374,315.1664902394445 L364.09364548494983,314.30916428429407 L367.10367892976586,313.3105741449137 L370.1137123745819,312.1718366959033 L373.123745819398,310.8942255598265 L376.13377926421407,309.4791696827246 L379.1438127090301,307.92825173591064 L382.1538461538462,306.24320634582784 L385.1638795986622,304.4259181539543 L388.17391304347825,302.4784197089229 L391.18394648829434,300.40288919321455 L394.19397993311037,298.20164798696646 L397.20401337792646,295.8771580716215 L400.21404682274255,293.4320192763211 L403.2240802675585,290.86896637012296 L406.2341137123746,288.19086600329393 L409.24414715719064,285.4007135011018 L412.2541806020067,282.5016295136884 L415.26421404682276,279.49685652577466 L418.27424749163885,276.38975523009833 L421.2842809364548,273.1838007686425 L424.29431438127096,269.882578845858 L427.30434782608694,266.4897817182269 L430.314381270903,263.00920406465275 L433.32441471571906,259.444738742297 L436.33444816053515,255.80037243260625 L439.3444816053512,252.08018118240363 L442.35451505016727,248.28832584502726 L445.36454849498324,244.42904742661875 L448.3745819397994,240.50666234276264 L451.3846153846154,236.5255575907861 L454.39464882943145,232.49018584311483 L457.40468227424753,228.40506046717468 L460.41471571906357,224.27475047741035 L463.4247491638796,220.1038754250634 L466.4347826086957,215.8971002314292 L469.4448160535117,211.65912997036833 L472.45484949832775,207.39470460591042 L475.46488294314383,203.1085936908337 L478.47491638795987,198.8055910321527 L481.4849498327759,194.49050932947677 L484.494983277592,190.16817479224008 L487.505016722408,185.84342174181978 L490.5150501672241,181.52108720458307 L493.52508361204013,177.20600550190716 L496.53511705685617,172.90300284322618 L499.54515050167225,168.61689192814944 L502.5551839464883,164.35246656369154 L505.5652173913043,160.11449630263067 L508.5752508361204,155.9077211089965 L511.58528428093643,151.7368460566495 L514.5953177257525,147.60653606688518 L517.6053511705686,143.52141069094506 L520.6153846153845,139.48603894327377 L523.6254180602007,135.5049341912972 L526.6354515050167,131.58254910744125 L529.6454849498327,127.72327068903263 L532.6555183946489,123.93141535165634 L535.6655518394648,120.21122410145361 L538.6755852842809,116.566857791763 L541.685618729097,113.00239246940711 L544.695652173913,109.52181481583307 L547.705685618729,106.12901768820188 L550.7157190635451,102.82779576541742 L553.7257525083612,99.62184130396153 L556.7357859531772,96.51474000828526 L559.7458193979933,93.50996702037145 L562.7558528428094,90.61088303295801 L565.7658862876254,87.8207305307659 L568.7759197324415,85.14263016393693 L571.7859531772576,82.57957725773866 L574.7959866220737,80.13443846243825 L577.8060200668897,77.80994854709331 L580.8160535117057,75.60870734084534 L583.8260869565217,73.53317682513693 L586.8361204013378,71.58567838010555 L589.8461538461539,69.76839018823199 L592.85618729097,68.0833447981492 L595.866220735786,66.53242685133523 L598.876254180602,65.11737097423338 L601.886287625418,63.83975983815651 L604.8963210702341,62.7010223891462 L607.9063545150502,61.702432249765764 L610.9163879598663,60.845106294615334 L613.9264214046823,60.13000340116196 L616.9364548494983,59.55792337728133 L619.9464882943143,59.129506066712054 L622.9565217391305,58.84523063342073 L625.9665551839465,58.70541502568125 L628.9765886287626,58.710215620464226 L631.9866220735786,58.859627048537334 L634.9966555183946,59.15348220047065 L638.0066889632106,59.59145241354031 L641.0167224080268,60.17304783932161 L644.0267558528428,60.897617991560935 L647.0367892976589,61.76435247371313 L650.0468227424749,62.772281885330415 L653.0568561872909,63.92027890628998 L656.0668896321071,65.20705955764674 L659.0769230769231,66.63118463770138 L662.0869565217391,68.19106133167759 L665.0969899665552,69.88494499320842 L668.1070234113712,71.71094109563813 L671.1170568561872,73.6670073509585 L674.1270903010034,75.75095599400868 L677.1371237458194,77.96045622938459 L680.1471571906354,80.2930368383204 L683.1571906354515,82.74608894262641 L686.1672240802675,85.31686892259296 L689.1772575250836,88.00250148559616 L692.1872909698997,90.79998288197265 L695.1973244147157,93.70618426456792 L698.2073578595317,96.71785518820016 L701.2173913043478,99.83162724512522 L704.2274247491638,103.04401783243756 L707.2374581939799,106.35143404719179 L710.247491638796,109.750176704891 L713.2575250836121,113.23644447684484 L716.2675585284281,116.80633814177071 L719.2775919732442,120.45586494688419 L722.2876254180602,124.18094307359857 L725.2976588628763,127.97740620284162 L728.3076923076924,131.84100817488016 L731.3177257525084,135.76742773844467 L734.3277591973244,139.7522733838383 L737.3377926421405,143.79108825462797 L740.3478260869565,147.87935513242113 L743.3578595317726,152.0125014891563 L746.3678929765887,156.18590460125276 L749.3779264214047,160.39489671990333 L752.3879598662207,164.6347702917241 L755.3979933110368,168.9007832239251 L758.4080267558529,173.1881641881102 L761.418060200669,177.492117956777 L764.4280936454851,181.80783076654555 L767.4381270903009,186.130475702119 L770.448160535117,190.45521809495492 L773.4581939799331,194.77722093060612 L776.4682274247492,199.09165025868734 L779.4782608695651,203.39368059941364 L782.4882943143813,207.67850034066643 L785.4983277591973,211.94131711954645 L788.5083612040135,216.1773631824001 L791.5183946488294,220.38190071731998 L794.5284280936455,224.5502271531585 L797.5384615384615,228.67768041912404 L800.5484949832777,232.7596441590818 L803.5585284280935,236.7915528947235 L806.5685618729096,240.76889713183425 L809.5785953177258,244.68722840394167 L812.5886287625419,248.54216424771036 L815.5986622073577,252.32939310451428 L818.6086956521739,256.04467914270646 L821.6187290969899,259.6838669951898 L824.628762541806,263.24288640699456 L827.638795986622,266.71775678766016 L830.6488294314381,270.1045916633336 L833.6588628762541,273.3996030236004 L836.6688963210703,276.5991055581911 L839.6789297658861,279.699520778822 L842.6889632107024,282.69738102156055 L845.6989966555184,285.5893333252387 L848.7090301003345,288.3721431815779 L851.7190635451503,291.04269815282885 L854.7290969899665,293.5980113528831 L857.7391304347825,296.0352247879589 L860.7491638795988,298.3516125531295 L863.7591973244148,300.5445838811151 L866.7692307692308,302.6116860399303 L869.779264214047,304.550607076146 L872.7892976588629,306.3591784006966 L875.7993311036789,308.0353772143423 L878.8093645484951,309.5773287700713 L881.819397993311,310.98330846991354 L884.8294314381271,312.25174379381986 L887.8394648829432,313.3812160584493 L890.8494983277592,314.3704620038975 L893.8595317725753,315.21837520659153 L896.8695652173914,315.9240073167713 L899.8795986622074,316.4865691191724 L902.8896321070234,316.905431415725 L905.8996655518393,317.18012572928166 L908.9096989966555,317.3103448275862 L911.9197324414716,317.29594306689785 L914.9297658862877,317.1369365548868 L917.9397993311038,316.83350313261883 L920.9498327759197,316.3859821756483 L923.9598662207358,315.79487421444315 L926.9698996655518,315.0608403745663 L929.9799331103678,314.18470163723816 L932.989966555184,313.16743792110935 L936,312.0101869862693" fill="none" stroke="#222222" stroke-width="2"/><circle cx="576" cy="79.19001598563102" r="4.5" fill="#dc2626" stroke="#222222" stroke-width="1"/></svg>