<svg xmlns="http://www.w3.org/2000/svg" width="960" height="342" viewBox="0 0 960 342"><line x1="36" y1="158" x2="936" y2="158" stroke="#222222" stroke-width="1.2"/><line x1="486" y1="8" x2="486" y2="308" stroke="#222222" stroke-width="1.2"/><line x1="126" y1="154" x2="126" y2="162" stroke="#222222" stroke-width="1"/><text x="126" y="172" text-anchor="middle" font-size="11" fill="#5c5c5c" font-family="var(--font-text), sans-serif">-16</text><line x1="306" y1="154" x2="306" y2="162" stroke="#222222" stroke-width="1"/><text x="306" y="172" text-anchor="middle" font-size="11" fill="#5c5c5c" font-family="var(--font-text), sans-serif">-8</text><line x1="486" y1="154" x2="486" y2="162" stroke="#222222" stroke-width="1"/><text x="486" y="172" text-anchor="middle" font-size="11" fill="#5c5c5c" font-family="var(--font-text), sans-serif">0</text><line x1="666" y1="154" x2="666" y2="162" stroke="#222222" stroke-width="1"/><text x="666" y="172" text-anchor="middle" font-size="11" fill="#5c5c5c" font-family="var(--font-text), sans-serif">8</text><line x1="846" y1="154" x2="846" y2="162" stroke="#222222" stroke-width="1"/><text x="846" y="172" text-anchor="middle" font-size="11" fill="#5c5c5c" font-family="var(--font-text), sans-serif">16</text><line x1="482" y1="261.44827586206895" x2="490" y2="261.44827586206895" stroke="#222222" stroke-width="1"/><text x="476" y="265.44827586206895" text-anchor="end" font-size="11" fill="#5c5c5c" font-family="var(--font-text), sans-serif">-4</text><line x1="482" y1="209.72413793103448" x2="490" y2="209.72413793103448" stroke="#222222" stroke-width="1"/><text x="476" y="213.72413793103448" text-anchor="end" font-size="11" fill="#5c5c5c" font-family="var(--font-text), sans-serif">-2</text><line x1="482" y1="158" x2="490" y2="158" stroke="#222222" stroke-width="1"/><text x="476" y="162" text-anchor="end" font-size="11" fill="#5c5c5c" font-family="var(--font-text), sans-serif">0</text><line x1="482" y1="106.27586206896552" x2="490" y2="106.27586206896552" stroke="#222222" stroke-width="1"/><text x="476" y="110.27586206896552" text-anchor="end" font-size="11" fill="#5c5c5c" font-family="var(--font-text), sans-serif">2</text><line x1="482" y1="54.55172413793099" x2="490" y2="54.55172413793099" stroke="#222222" stroke-width="1"/><text x="476" y="58.55172413793099" text-anchor="end" font-size="11" fill="#5c5c5c" font-family="var(--font-text), sans-serif">4</text><text x="486" y="322" text-anchor="middle" font-size="12" fill="#222222" font-family="var(--font-text), sans-serif">x</text><text x="22" y="158" text-anchor="middle" font-size="12" fill="#222222" font-family="var(--font-text), sans-serif" transform="rotate(-90 22 158)">y</text><path d="M36,136.44476644415178 L39.01003344481609,139.29892261238936 L42.020066889632105,142.56368379813622 L45.03010033444819,146.00672463640956 L48.04013377926421,149.38303311135462 L51.0501672240803,152.45234598345462 L54.06020066889631,154.9962462866014 L57.0702341137124,156.83370621116876 L60.08026755852841,157.83396931791677 L63.09030100334451,157.92585536482065 L66.10033444816051,157.1028256012126 L69.1103678929766,155.42344807521107 L72.12040133779261,153.00722984245493 L75.13043478260872,150.02611266249895 L78.14046822742472,146.69223736203352 L81.15050167224081,143.24284757142564 L84.16053511705682,139.9234071076219 L87.17056856187291,136.97013239608668 L90.18060200668901,134.59318295116623 L93.19063545150502,132.96170610582575 L96.20066889632103,132.19180023050947 L99.21070234113712,132.33825299675263 L102.22073578595321,133.3906426032551 L105.23076923076923,135.2740794070921 L108.24080267558531,137.85453518445848 L111.25083612040133,140.94838078265641 L114.26086956521742,144.33545344952495 L117.27090301003342,147.77472394929944 L120.28093645484952,151.02144856914006 L123.29096989966553,153.84458545349014 L126.30100334448161,156.0432358934589 L129.31103678929765,157.46094058410046 L132.32107023411373,157.9968135062079 L135.33110367892974,157.61272112868053 L138.34113712374582,156.33599604851975 L141.35117056856188,154.25749196171003 L144.36120401337791,151.52511837621012 L147.37123745819397,148.33331514669993 L150.38127090301003,144.90921583917734 L153.39130434782606,141.49648456139732 L156.40133779264215,138.33797645485112 L159.41137123745818,135.65845575401278 L162.42140468227424,133.6486012220089 L165.4314381270903,132.45143716020306 L168.44147157190633,132.1521555816645 L171.45150501672245,132.77205381811532 L174.46153846153845,134.26701896945596 L177.47157190635454,136.5306670447415 L180.48160535117054,139.40191340856887 L183.49163879598666,142.67643580841175 L186.50167224080266,146.12121425646515 L189.51170568561875,149.49111308592347 L192.52173913043475,152.54632517737826 L195.53177257525084,155.06943699769081 L198.54180602006684,156.88090007724975 L201.55183946488296,157.851807951794 L204.56187290969896,157.91306934221143 L207.57190635451505,157.0603247949071 L210.5819397993311,155.35425690714254 L213.59197324414717,152.91627206124096 L216.60200668896323,149.919860962011 L219.61204013377926,146.57825277466915 L222.62207357859532,143.12924141355853 L225.63210702341138,139.81826376600776 L228.6421404682274,136.88093403062217 L231.65217391304347,134.52627705302555 L234.66220735785953,132.9218538003472 L237.6722408026756,132.18183746828453 L240.68227424749162,132.35888874307415 L243.6923076923077,133.4404083870702 L246.70234113712377,135.34943381963285 L249.7123745819398,137.95011589126892 L252.72240802675586,141.05738611545777 L255.73244147157192,144.45012642326148 L258.74247491638795,147.8869042609778 L261.75250836120404,151.12315329738493 L264.76254180602007,153.9285771353554 L267.7725752508361,156.10353755328387 L270.78260869565213,157.49326106417695 L273.7926421404682,157.99885283208047 L276.8026755852843,157.58433417882244 L279.81270903010034,156.27920288140126 L282.82274247491637,154.1763340653692 L285.8327759197324,151.42537106982525 L288.8428093645485,148.22207660010446 L291.8528428093645,144.79440195631258 L294.8628762541806,141.38626567256446 L297.87290969899664,138.24019590359626 L300.8829431438127,135.5800717528869 L303.8929765886288,133.5951916955934 L306.90301003344484,132.42680281152406 L309.9130434782609,132.15804942839225 L312.92307692307696,132.80805644516423 L315.933110367893,134.3305683751992 L318.943143812709,136.61724095693793 L321.9531772575251,139.5053510961253 L324.96321070234114,142.7893764883651 L327.9732441471572,146.23562089847886 L330.98327759197326,149.59884433957393 L333.9933110367893,152.63971472301753 L337.0033444816053,155.14183909339718 L340.0133779264214,156.9271624799177 L343.02341137123744,157.86863855857945 L346.03344481605353,157.89927046157072 L349.04347826086956,157.0168783761464 L352.0535117056856,155.28425466341378 L355.0635451505017,152.8246954585377 L358.0735785953177,149.81322673048174 L361.08361204013374,146.46414916820146 L364.09364548494983,143.01578821810622 L367.10367892976586,139.71353448328884 L370.1137123745819,136.7923813554733 L373.123745819398,134.46020252831735 L376.13377926421407,132.88295938962167 L379.1438127090301,132.17289095688758 L382.1538461538462,132.38052677834608 L385.1638795986622,133.49109117355394 L388.17391304347825,135.42555469325768 L391.18394648829434,138.046257975044 L394.19397993311037,141.16670779266673 L397.20401337792646,144.56484819730014 L400.21404682274255,147.998862356149 L403.2240802675585,151.2243806055777 L406.2341137123746,154.01187016755966 L409.24414715719064,156.1629690508101 L412.2541806020067,157.52460179138774 L415.26421404682276,157.99987253522258 L418.27424749163885,157.55496029427135 L421.2842809364548,156.2215256993991 L424.29431438127096,154.09445798179587 L427.30434782608694,151.3251225111535 L430.314381270903,148.11058940604173 L433.32441471571906,144.67960972493185 L436.33444816053515,141.27633719341415 L439.3444816053512,138.14295385422858 L442.35451505016727,135.50243602524043 L445.36454849498324,133.54268696597228 L448.3745819397994,132.40316539624004 L451.3846153846154,132.16496140182102 L454.39464882943145,132.84502594077767 L457.40468227424753,134.39496458753462 L460.41471571906357,136.70448135371103 L463.4247491638796,139.60922751818805 L466.4347826086957,142.90249693174044 L469.4448160535117,146.34993554059213 L472.45484949832775,149.7062183768542 L475.46488294314383,152.7325072558763 L478.47491638795987,155.21344686424908 L481.4849498327759,156.9724897710204 L484.494983277592,157.88445981104817 L487.505016722408,157.88445981104817 L490.5150501672241,156.9724897710204 L493.52508361204013,155.21344686424908 L496.53511705685617,152.7325072558763 L499.54515050167225,149.7062183768542 L502.5551839464883,146.34993554059213 L505.5652173913043,142.90249693174044 L508.5752508361204,139.60922751818805 L511.58528428093643,136.70448135371103 L514.5953177257525,134.39496458753462 L517.6053511705686,132.84502594077767 L520.6153846153845,132.16496140182102 L523.6254180602007,132.40316539624004 L526.6354515050167,133.54268696597222 L529.6454849498327,135.50243602524043 L532.6555183946489,138.14295385422847 L535.6655518394648,141.27633719341415 L538.6755852842809,144.67960972493174 L541.685618729097,148.11058940604173 L544.695652173913,151.32512251115344 L547.705685618729,154.09445798179587 L550.7157190635451,156.22152569939905 L553.7257525083612,157.55496029427135 L556.7357859531772,157.99987253522258 L559.7458193979933,157.52460179138774 L562.7558528428094,156.16296905081003 L565.7658862876254,154.01187016755958 L568.7759197324415,151.2243806055777 L571.7859531772576,147.99886235614892 L574.7959866220737,144.56484819730002 L577.8060200668897,141.1667077926667 L580.8160535117057,138.046257975044 L583.8260869565217,135.42555469325765 L586.8361204013378,133.49109117355388 L589.8461538461539,132.38052677834602 L592.85618729097,132.17289095688758 L595.866220735786,132.88295938962167 L598.876254180602,134.46020252831738 L601.886287625418,136.7923813554733 L604.8963210702341,139.71353448328875 L607.9063545150502,143.01578821810622 L610.9163879598663,146.46414916820152 L613.9264214046823,149.81322673048174 L616.9364548494983,152.82469545853763 L619.9464882943143,155.28425466341378 L622.9565217391305,157.01687837614642 L625.9665551839465,157.89927046157072 L628.9765886287626,157.86863855857945 L631.9866220735786,156.9271624799177 L634.9966555183946,155.14183909339715 L638.0066889632106,152.63971472301753 L641.0167224080268,149.59884433957396 L644.0267558528428,146.23562089847886 L647.0367892976589,142.789376488365 L650.0468227424749,139.5053510961253 L653.0568561872909,136.61724095693796 L656.0668896321071,134.3305683751992 L659.0769230769231,132.80805644516423 L662.0869565217391,132.15804942839225 L665.0969899665552,132.42680281152406 L668.1070234113712,133.5951916955934 L671.1170568561872,135.5800717528869 L674.1270903010034,138.24019590359623 L677.1371237458194,141.38626567256438 L680.1471571906354,144.79440195631256 L683.1571906354515,148.22207660010446 L686.1672240802675,151.4253710698252 L689.1772575250836,154.17633406536913 L692.1872909698997,156.27920288140126 L695.1973244147157,157.58433417882244 L698.2073578595317,157.99885283208047 L701.2173913043478,157.49326106417698 L704.2274247491638,156.10353755328393 L707.2374581939799,153.9285771353554 L710.247491638796,151.12315329738496 L713.2575250836121,147.88690426097767 L716.2675585284281,144.45012642326145 L719.2775919732442,141.0573861154577 L722.2876254180602,137.9501158912689 L725.2976588628763,135.3494338196328 L728.3076923076924,133.44040838707016 L731.3177257525084,132.35888874307415 L734.3277591973244,132.18183746828453 L737.3377926421405,132.9218538003472 L740.3478260869565,134.52627705302555 L743.3578595317726,136.8809340306222 L746.3678929765887,139.81826376600776 L749.3779264214047,143.1292414135586 L752.3879598662207,146.57825277466915 L755.3979933110368,149.91986096201103 L758.4080267558529,152.91627206124096 L761.418060200669,155.35425690714254 L764.4280936454851,157.06032479490713 L767.4381270903009,157.9130693422114 L770.448160535117,157.851807951794 L773.4581939799331,156.88090007724975 L776.4682274247492,155.0694369976908 L779.4782608695651,152.54632517737832 L782.4882943143813,149.49111308592347 L785.4983277591973,146.12121425646515 L788.5083612040135,142.67643580841167 L791.5183946488294,139.40191340856893 L794.5284280936455,136.5306670447415 L797.5384615384615,134.26701896945596 L800.5484949832777,132.7720538181153 L803.5585284280935,132.1521555816645 L806.5685618729096,132.45143716020306 L809.5785953177258,133.6486012220089 L812.5886287625419,135.6584557540128 L815.5986622073577,138.33797645485103 L818.6086956521739,141.4964845613973 L821.6187290969899,144.90921583917734 L824.628762541806,148.33331514669996 L827.638795986622,151.52511837621 L830.6488294314381,154.25749196171 L833.6588628762541,156.33599604851975 L836.6688963210703,157.61272112868053 L839.6789297658861,157.99681350620793 L842.6889632107024,157.4609405841005 L845.6989966555184,156.0432358934589 L848.7090301003345,153.84458545349014 L851.7190635451503,151.02144856914015 L854.7290969899665,147.77472394929953 L857.7391304347825,144.33545344952495 L860.7491638795988,140.94838078265641 L863.7591973244148,137.85453518445843 L866.7692307692308,135.27407940709205 L869.779264214047,133.39064260325497 L872.7892976588629,132.33825299675263 L875.7993311036789,132.19180023050947 L878.8093645484951,132.96170610582578 L881.819397993311,134.59318295116623 L884.8294314381271,136.97013239608668 L887.8394648829432,139.9234071076219 L890.8494983277592,143.24284757142576 L893.8595317725753,146.69223736203358 L896.8695652173914,150.02611266249895 L899.8795986622074,153.00722984245493 L902.8896321070234,155.4234480752111 L905.8996655518393,157.10282560121257 L908.9096989966555,157.92585536482065 L911.9197324414716,157.83396931791677 L914.9297658862877,156.83370621116876 L917.9397993311038,154.99624628660135 L920.9498327759197,152.45234598345462 L923.9598662207358,149.38303311135462 L926.9698996655518,146.00672463640944 L929.9799331103678,142.56368379813634 L932.989966555184,139.29892261238936 L936,136.44476644415178" fill="none" stroke="#222222" stroke-width="2"/></svg>